<?xml version="1.0" encoding="UTF-8" standalone="no"?>
<!-- Created with Inkscape (http://www.inkscape.org/) -->

<svg
    width="738.93774"
    height="377.88623"
    viewBox="0 0 195.51061 99.982398"
    version="1.1"
    id="svg1"
    xml:space="preserve"
    xmlns="http://www.w3.org/2000/svg"
    xmlns:svg="http://www.w3.org/2000/svg"><defs
     id="defs1" /><g
     id="layer1"
     style="display:inline"
     transform="translate(-374.23315,668.57812)"><g
       id="g28"
       transform="matrix(6.9157853,0,0,6.9157853,1570.8014,1927.1328)"><g
         id="g27"
         transform="matrix(1.0964904,0,0,1.0964904,15.043719,35.159466)"><path
           id="path12"
           style="display:inline;fill:#ff9800;fill-opacity:1;stroke-width:0.0064429;stroke-miterlimit:1"
           d="m -160.07063,-374.36789 -0.7239,0.69549 -0.36804,0.35359 -4.81674,4.62801 -0.59411,0.57078 h 1.73737 l 0.59409,-0.57078 h -1.00156 l 4.44899,-4.27453 0.36791,-0.35348 0.35599,-0.342 0.50065,0.48114 0.36803,0.35346 0.2111,0.20289 0.36802,0.35361 3.72497,3.57891 h -0.71202 -6.73805 l 3.00121,-2.88344 -0.36804,-0.35359 -3.36895,3.23703 -0.5941,0.57078 h 8.66204 1.44779 1.73736 1.15824 l -6.50264,-6.24787 -0.57912,0.55636 0.36788,0.35361 0.21124,-0.20289 5.17276,4.97001 h -0.42247 -0.73577 -1.00158 l -4.09285,-3.93252 -0.3679,-0.35346 -0.21124,-0.20289 -0.36788,-0.35362 z" /><g
           id="g26"
           transform="translate(-2.75702,-55.559837)"><path
             d="m -167.77524,-306.70729 h -0.66404 l 0.005,-0.62528 h 0.65888 q 0.27388,0 0.42633,-0.0982 0.15244,-0.0982 0.21446,-0.31005 0.0646,-0.21188 0.0646,-0.55553 v -0.58652 q 0,-0.26097 -0.0336,-0.44184 -0.0336,-0.18345 -0.11369,-0.29455 -0.0801,-0.11369 -0.21445,-0.16795 -0.13436,-0.0543 -0.33332,-0.0543 h -0.68729 v -0.62787 h 0.68729 q 0.32556,0 0.5917,0.10594 0.26613,0.10593 0.45734,0.31005 0.1912,0.20154 0.29455,0.49868 0.10335,0.29714 0.10335,0.67696 v 0.58136 q 0,0.38241 -0.10335,0.67697 -0.10335,0.29455 -0.29455,0.49867 -0.18862,0.20154 -0.45734,0.30748 -0.26872,0.10593 -0.60203,0.10593 z m -0.22479,-3.76204 v 3.76204 h -0.75707 v -3.76204 z m 3.52299,2.60191 v -2.60191 h 0.75447 v 2.60191 q 0,0.37724 -0.14469,0.65112 -0.14211,0.2713 -0.38757,0.416 -0.24547,0.14469 -0.55294,0.14469 -0.31523,0 -0.56328,-0.12402 -0.24546,-0.12661 -0.38757,-0.38499 -0.14211,-0.25838 -0.14211,-0.65371 h 0.75964 q 0,0.20154 0.0413,0.31781 0.0414,0.11627 0.11628,0.16795 0.0775,0.0517 0.1757,0.0517 0.10593,0 0.17828,-0.0698 0.0749,-0.0698 0.11369,-0.19895 0.0388,-0.13178 0.0388,-0.31781 z m 3.56691,0.53485 v 0.62528 h -1.63556 v -0.62528 z m -1.40043,-3.13676 v 3.76204 h -0.75706 v -3.76204 z m 1.18081,1.52445 v 0.6072 h -1.41594 v -0.6072 z m 0.21445,-1.52445 v 0.62787 h -1.63039 v -0.62787 z m 0.49992,0 h 1.20665 q 0.37724,0 0.64337,0.12919 0.26613,0.12919 0.40824,0.38241 0.14211,0.25321 0.14211,0.62528 0,0.30489 -0.0827,0.52193 -0.0827,0.21446 -0.23513,0.35915 -0.15244,0.14211 -0.36431,0.22738 l -0.22996,0.13694 h -0.97927 l -0.003,-0.62787 h 0.67955 q 0.15503,0 0.2558,-0.0672 0.10335,-0.0698 0.15244,-0.19378 0.0517,-0.12661 0.0517,-0.29456 0,-0.17828 -0.0465,-0.30489 -0.0439,-0.12919 -0.14211,-0.19637 -0.0956,-0.0698 -0.25063,-0.0698 h -0.44959 v 3.13417 h -0.75706 z m 1.70791,3.76204 -0.68988,-1.6769 0.79323,-0.003 0.70539,1.64331 v 0.0362 z"
             id="path13"
             style="font-weight:bold;font-size:5.29167px;line-height:1.25;font-family:'Roboto Condensed';-inkscape-font-specification:'Roboto Condensed, Bold';letter-spacing:0.0529167px;fill:#18462a;fill-opacity:1;stroke-width:0.264583"
             aria-label="DJER" /><path
             d="m -153.48039,-310.44351 h 0.66405 l 0.76739,2.57349 0.76481,-2.57349 h 0.58653 l -1.0697,3.76205 h -0.56586 z m -0.26871,0 h 0.63303 l 0.0982,2.48047 v 1.28158 h -0.73122 z m 2.7621,0 h 0.63562 v 3.76205 h -0.72863 v -1.28158 z m 1.57221,0 h 0.66404 l 0.7674,2.57349 0.76481,-2.57349 h 0.58653 l -1.06971,3.76205 h -0.56585 z m -0.26872,0 h 0.63304 l 0.0982,2.48047 v 1.28158 h -0.73122 z m 2.76211,0 h 0.63562 v 3.76205 h -0.72864 v -1.28158 z m 3.94674,1.58905 v 0.62787 q 0,0.39791 -0.0982,0.69763 -0.0956,0.29714 -0.27389,0.49868 -0.1757,0.19896 -0.42633,0.29972 -0.24804,0.10077 -0.55035,0.10077 -0.30231,0 -0.55294,-0.10077 -0.24805,-0.10076 -0.42891,-0.29972 -0.17829,-0.20154 -0.27647,-0.49868 -0.0982,-0.29972 -0.0982,-0.69763 v -0.62787 q 0,-0.40824 0.0956,-0.71313 0.0956,-0.30748 0.27647,-0.5116 0.18087,-0.20671 0.42892,-0.31006 0.24804,-0.10594 0.55035,-0.10594 0.30231,0 0.55036,0.10594 0.24804,0.10335 0.42891,0.31006 0.18087,0.20412 0.27647,0.5116 0.0982,0.30489 0.0982,0.71313 z m -0.7519,0.62787 v -0.63304 q 0,-0.26871 -0.0387,-0.45733 -0.0388,-0.19121 -0.11628,-0.31264 -0.0775,-0.12144 -0.18862,-0.17829 -0.1111,-0.0568 -0.25838,-0.0568 -0.14728,0 -0.26096,0.0568 -0.11111,0.0568 -0.18862,0.17829 -0.0749,0.12143 -0.11369,0.31264 -0.0362,0.18862 -0.0362,0.45733 v 0.63304 q 0,0.25838 0.0388,0.44183 0.0388,0.18346 0.11627,0.29973 0.0775,0.11627 0.18862,0.17311 0.11369,0.0543 0.26097,0.0543 0.14469,0 0.2558,-0.0543 0.11369,-0.0568 0.18862,-0.17311 0.0749,-0.11627 0.11369,-0.29973 0.0387,-0.18345 0.0387,-0.44183 z"
             id="path14"
             style="font-weight:bold;font-size:5.29167px;line-height:1.25;font-family:'Roboto Condensed';-inkscape-font-specification:'Roboto Condensed, Bold';letter-spacing:0.0529167px;fill:#18462a;fill-opacity:1;stroke-width:0.264583"
             aria-label="MMO" /><g
             id="g25"
             transform="translate(-41.938784,22.602987)"><g
               id="g22"
               transform="translate(15.273394,-16.869437)"><path
                 d="m -129.42311,-317.2354 v 5.87871 h -1.28106 v -5.87871 z"
                 id="path15"
                 style="font-weight:bold;font-size:5.29167px;line-height:1.25;font-family:'Roboto Condensed';-inkscape-font-specification:'Roboto Condensed, Bold';letter-spacing:0.0529167px;display:inline;fill:#ff9800;fill-opacity:1;stroke-width:0.264583"
                 aria-label="I" /><path
                 id="path18"
                 style="opacity:1;fill:#18462a;fill-opacity:1;stroke-width:0.0235486;stroke-miterlimit:1"
                 d="m -130.70416,-316.60824 v 0.0656 h 1.28106 v -0.0656 z m 0.60771,0.0661 v 0.54054 h -0.60771 v 0.0661 h 0.25579 v 0.54106 h -0.25579 v 0.0661 h 0.91157 v 0.54105 h -0.91157 v 0.0661 h 0.32194 v 0.54105 h -0.32194 v 0.0662 h 0.94464 v 0.54105 h -0.94464 v 0.0661 h 0.64078 v 0.54105 h -0.64078 v 0.0661 h 0.18293 v 0.54054 h -0.18293 v 0.0661 h 0.82889 v 0.54105 h -0.82889 v 0.0661 h 1.28106 v -0.0661 h -0.38603 v -0.54105 h 0.38603 v -0.0661 h -1.03198 v -0.54054 h 1.03198 v -0.0661 h -0.57413 v -0.54105 h 0.57413 v -0.0661 h -0.27027 v -0.54105 h 0.27027 v -0.0662 h -0.89297 v -0.54105 h 0.89297 v -0.0661 h -0.30335 v -0.54105 h 0.30335 v -0.0661 h -0.95912 v -0.54106 h 0.95912 v -0.0661 h -0.60772 v -0.54054 z" /></g><g
               id="g24"
               transform="translate(17.083636,-16.869437)"><path
                 d="m -129.42311,-317.2354 v 5.87871 h -1.28106 v -5.87871 z"
                 id="path23"
                 style="font-weight:bold;font-size:5.29167px;line-height:1.25;font-family:'Roboto Condensed';-inkscape-font-specification:'Roboto Condensed, Bold';letter-spacing:0.0529167px;display:inline;fill:#ff9800;fill-opacity:1;stroke-width:0.264583"
                 aria-label="I" /><path
                 id="path24"
                 style="opacity:1;fill:#18462a;fill-opacity:1;stroke-width:0.0235486;stroke-miterlimit:1"
                 d="m -130.70418,-316.60824 v 0.0656 h 1.28106 v -0.0656 z m 0.60771,0.0661 v 0.54054 h -0.60771 v 0.0661 h 0.2558 v 0.54106 h -0.2558 v 0.0661 h 0.91157 v 0.54105 h -0.91157 v 0.0661 h 0.32194 v 0.54105 h -0.32194 v 0.0662 h 0.94464 v 0.54105 h -0.94464 v 0.0661 h 0.64079 v 0.54105 h -0.64079 v 0.0661 h 0.18293 v 0.54054 h -0.18293 v 0.0661 h 0.82889 v 0.54105 h -0.82889 v 0.0661 h 1.28106 v -0.0661 h -0.38602 v -0.54105 h 0.38602 v -0.0661 h -1.03198 v -0.54054 h 1.03198 v -0.0661 h -0.57413 v -0.54105 h 0.57413 v -0.0661 h -0.27027 v -0.54105 h 0.27027 v -0.0662 h -0.89297 v -0.54105 h 0.89297 v -0.0661 h -0.30334 v -0.54105 h 0.30334 v -0.0661 h -0.95912 v -0.54106 h 0.95912 v -0.0661 h -0.60772 v -0.54054 z" /></g></g></g></g></g></g></svg>